<svg xmlns="http://www.w3.org/2000/svg" viewBox="0 0 16.9333 33.8667">
    <path d="M3.175 16.9333h10.5833"/>
    <path d="M3.175 1.0583h10.5833"/>
    <path d="M15.875 3.175v11.6417"/>
    <path style="line-height:normal;font-variant-ligatures:normal;font-variant-position:normal;font-variant-caps:normal;font-variant-numeric:normal;font-variant-alternates:normal;font-feature-settings:normal;text-indent:0;text-align:start;text-decoration-line:none;text-decoration-style:solid;text-decoration-color:#000;text-transform:none;text-orientation:mixed;white-space:normal;shape-padding:0;isolation:auto;mix-blend-mode:normal;solid-color:#000;solid-opacity:1" d="M8.4553 2.3704a.7938.7938 0 00-.7813.8051v3.7683L3.7615 2.64a.7938.7938 0 00-.6366-.2656.7938.7938 0 00-.537 1.3338l4.8065 5.2875-4.8064 5.287a.7938.7938 0 101.1735 1.0682l3.9125-4.3036v3.7687a.7938.7938 0 00.2707.6352.7938.7938 0 00.0626.049.7938.7938 0 001.2526-.6842V11.048l3.912 4.3031a.7938.7938 0 00.3983.2475.7938.7938 0 00.078.0166.7938.7938 0 00.6977-1.3323l-4.8064-5.287 4.8064-5.2875a.7938.7938 0 00-.5628-1.3358.7938.7938 0 00-.3105.0563.7938.7938 0 00-.0719.033.7938.7938 0 00-.2289.1783L9.26 6.9432V3.1755a.7938.7938 0 00-.8046-.8051z" color="#000" font-weight="400" font-family="sans-serif" overflow="visible" fill="#fff" fill-opacity=".3137"/>
    <path d="M1.0583 3.175v11.64173"/>
    <path d="M3.175 32.8083h10.5833"/>
    <path style="line-height:normal;font-variant-ligatures:normal;font-variant-position:normal;font-variant-caps:normal;font-variant-numeric:normal;font-variant-alternates:normal;font-feature-settings:normal;text-indent:0;text-align:start;text-decoration-line:none;text-decoration-style:solid;text-decoration-color:#000;text-transform:none;text-orientation:mixed;white-space:normal;shape-padding:0;isolation:auto;mix-blend-mode:normal;solid-color:#000;solid-opacity:1" d="M8.4553 18.2454a.7938.7938 0 00-.7813.8051v3.7683L3.7615 18.515a.7938.7938 0 00-.6366-.2656.7938.7938 0 00-.537 1.3338l4.8065 5.2875-4.8064 5.287a.7938.7938 0 101.1735 1.0682l3.9125-4.3036v3.7688a.7938.7938 0 00.2707.635.7938.7938 0 00.0626.0491.7938.7938 0 001.2526-.6841v-3.7683l3.912 4.3031a.7938.7938 0 00.3983.2475.7938.7938 0 00.078.0166.7938.7938 0 00.6977-1.3323l-4.8064-5.287 4.8064-5.2875a.7938.7938 0 00-.5628-1.3358.7938.7938 0 00-.3105.0563.7938.7938 0 00-.0719.033.7938.7938 0 00-.2289.1783L9.26 22.8182v-3.7677a.7938.7938 0 00-.8046-.8051z" color="#000" font-weight="400" font-family="sans-serif" overflow="visible" fill="#fff" fill-opacity=".3137"/>
    <path d="M1.0583 19.05v11.6417"/>
    <path d="M15.875 19.05v11.6417"/>
</svg>