<svg xmlns="http://www.w3.org/2000/svg" width="656" height="128" viewBox="0 0 173.57 33.87"><path d="M3.18 16.93h10.58" fill="none" stroke="#fff" stroke-width="1.59" stroke-linecap="round" stroke-linejoin="round" stroke-opacity=".31"/><path d="M3.18 1.06h10.58" fill="none" stroke="#19b80b" stroke-width="1.59" stroke-linecap="round" stroke-linejoin="round"/><path d="M15.88 3.17v11.65" fill="none" stroke="#fff" stroke-width="1.59" stroke-linecap="round" stroke-linejoin="round" stroke-opacity=".31"/><path d="M8.46 2.37a.8.8 0 00-.79.8v3.77l-3.9-4.3a.8.8 0 00-.65-.27.8.8 0 00-.53 1.34L7.39 9l-4.8 5.28a.8.8 0 101.17 1.07l3.91-4.3v3.77a.8.8 0 00.27.63.8.8 0 00.07.05.8.8 0 001.25-.68v-3.77l3.91 4.3a.8.8 0 00.4.25.8.8 0 00.08.01.8.8 0 00.7-1.33L9.54 9l4.8-5.3a.8.8 0 00-.56-1.33.8.8 0 00-.3.06.8.8 0 00-.08.03.8.8 0 00-.23.18l-3.91 4.3V3.18a.8.8 0 00-.8-.81z" style="line-height:normal;font-variant-ligatures:normal;font-variant-position:normal;font-variant-caps:normal;font-variant-numeric:normal;font-variant-alternates:normal;font-feature-settings:normal;text-indent:0;text-align:start;text-decoration-line:none;text-decoration-style:solid;text-decoration-color:#000;text-transform:none;text-orientation:mixed;white-space:normal;shape-padding:0;isolation:auto;mix-blend-mode:normal;solid-color:#000;solid-opacity:1" color="#000" font-weight="400" font-family="sans-serif" overflow="visible" fill="#fff" fill-opacity=".31"/><path d="M1.06 3.17v11.65M3.18 32.8h10.58" fill="none" stroke="#19b80b" stroke-width="1.59" stroke-linecap="round" stroke-linejoin="round"/><path d="M8.46 18.25a.8.8 0 00-.79.8v3.77l-3.9-4.3a.8.8 0 00-.65-.27.8.8 0 00-.53 1.33l4.8 5.3-4.8 5.28a.8.8 0 101.17 1.07l3.91-4.3v3.76a.8.8 0 00.27.64.8.8 0 00.07.05.8.8 0 001.25-.69v-3.77l3.91 4.3a.8.8 0 00.4.25.8.8 0 00.08.02.8.8 0 00.7-1.33l-4.81-5.29 4.8-5.29a.8.8 0 00-.56-1.33.8.8 0 00-.3.05.8.8 0 00-.08.04.8.8 0 00-.23.18l-3.91 4.3v-3.77a.8.8 0 00-.8-.8z" style="line-height:normal;font-variant-ligatures:normal;font-variant-position:normal;font-variant-caps:normal;font-variant-numeric:normal;font-variant-alternates:normal;font-feature-settings:normal;text-indent:0;text-align:start;text-decoration-line:none;text-decoration-style:solid;text-decoration-color:#000;text-transform:none;text-orientation:mixed;white-space:normal;shape-padding:0;isolation:auto;mix-blend-mode:normal;solid-color:#000;solid-opacity:1" color="#000" font-weight="400" font-family="sans-serif" overflow="visible" fill="#fff" fill-opacity=".31"/><path d="M1.06 19.05v11.64" fill="none" stroke="#19b80b" stroke-width="1.59" stroke-linecap="round" stroke-linejoin="round"/><path d="M15.88 19.05v11.64" fill="none" stroke="#fff" stroke-width="1.59" stroke-linecap="round" stroke-linejoin="round" stroke-opacity=".31"/><g><path d="M22.75 16.93h10.59" fill="none" stroke="#19b80b" stroke-width="1.59" stroke-linecap="round" stroke-linejoin="round"/><path d="M22.75 1.06h10.59" fill="none" stroke="#fff" stroke-width="1.59" stroke-linecap="round" stroke-linejoin="round" stroke-opacity=".31"/><path d="M35.45 3.17v11.65" fill="none" stroke="#19b80b" stroke-width="1.59" stroke-linecap="round" stroke-linejoin="round"/><path style="line-height:normal;font-variant-ligatures:normal;font-variant-position:normal;font-variant-caps:normal;font-variant-numeric:normal;font-variant-alternates:normal;font-feature-settings:normal;text-indent:0;text-align:start;text-decoration-line:none;text-decoration-style:solid;text-decoration-color:#000;text-transform:none;text-orientation:mixed;white-space:normal;shape-padding:0;isolation:auto;mix-blend-mode:normal;solid-color:#000;solid-opacity:1" d="M28.03 2.37a.8.8 0 00-.78.8v3.77l-3.9-4.3a.8.8 0 00-.65-.27.8.8 0 00-.53 1.34L26.97 9l-4.8 5.28a.8.8 0 101.17 1.07l3.91-4.3v3.77a.8.8 0 00.27.63.8.8 0 00.07.05.8.8 0 001.25-.68v-3.77l3.91 4.3a.8.8 0 00.4.25.8.8 0 00.08.01.8.8 0 00.7-1.33L29.12 9l4.8-5.3a.8.8 0 00-.56-1.33.8.8 0 00-.3.06.8.8 0 00-.08.03.8.8 0 00-.23.18l-3.91 4.3V3.18a.8.8 0 00-.8-.81z" color="#000" font-weight="400" font-family="sans-serif" overflow="visible" fill="#fff" fill-opacity=".31"/><path d="M20.64 3.17v11.65M22.75 32.8h10.59" fill="none" stroke="#19b80b" stroke-width="1.59" stroke-linecap="round" stroke-linejoin="round"/><path style="line-height:normal;font-variant-ligatures:normal;font-variant-position:normal;font-variant-caps:normal;font-variant-numeric:normal;font-variant-alternates:normal;font-feature-settings:normal;text-indent:0;text-align:start;text-decoration-line:none;text-decoration-style:solid;text-decoration-color:#000;text-transform:none;text-orientation:mixed;white-space:normal;shape-padding:0;isolation:auto;mix-blend-mode:normal;solid-color:#000;solid-opacity:1" d="M28.03 18.25a.8.8 0 00-.78.8v3.77l-3.9-4.3a.8.8 0 00-.65-.27.8.8 0 00-.53 1.33l4.8 5.3-4.8 5.28a.8.8 0 101.17 1.07l3.91-4.3v3.76a.8.8 0 00.27.64.8.8 0 00.07.05.8.8 0 001.25-.69v-3.77l3.91 4.3a.8.8 0 00.4.25.8.8 0 00.08.02.8.8 0 00.7-1.33l-4.81-5.29 4.8-5.29a.8.8 0 00-.56-1.33.8.8 0 00-.3.05.8.8 0 00-.08.04.8.8 0 00-.23.18l-3.91 4.3v-3.77a.8.8 0 00-.8-.8z" color="#000" font-weight="400" font-family="sans-serif" overflow="visible" fill="#fff" fill-opacity=".31"/><path d="M20.64 19.05v11.64" fill="none" stroke="#fff" stroke-width="1.59" stroke-linecap="round" stroke-linejoin="round" stroke-opacity=".31"/><path d="M35.45 19.05v11.64" fill="none" stroke="#19b80b" stroke-width="1.59" stroke-linecap="round" stroke-linejoin="round"/></g><g><path d="M42.33 16.93h10.59" fill="none" stroke="#19b80b" stroke-width="1.59" stroke-linecap="round" stroke-linejoin="round"/><path d="M42.33 1.06h10.59M55.03 3.17v11.65" fill="none" stroke="#fff" stroke-width="1.59" stroke-linecap="round" stroke-linejoin="round" stroke-opacity=".31"/><path style="line-height:normal;font-variant-ligatures:normal;font-variant-position:normal;font-variant-caps:normal;font-variant-numeric:normal;font-variant-alternates:normal;font-feature-settings:normal;text-indent:0;text-align:start;text-decoration-line:none;text-decoration-style:solid;text-decoration-color:#000;text-transform:none;text-orientation:mixed;white-space:normal;shape-padding:0;isolation:auto;mix-blend-mode:normal;solid-color:#000;solid-opacity:1" d="M47.61 2.37a.8.8 0 00-.78.8v3.77l-3.91-4.3a.8.8 0 00-.64-.27.8.8 0 00-.53 1.34L46.55 9l-4.8 5.28a.8.8 0 101.17 1.07l3.91-4.3v3.77a.8.8 0 00.27.63.8.8 0 00.07.05.8.8 0 001.25-.68v-3.77l3.91 4.3a.8.8 0 00.4.25.8.8 0 00.08.01.8.8 0 00.7-1.33L48.7 9l4.8-5.3a.8.8 0 00-.56-1.33.8.8 0 00-.3.06.8.8 0 00-.08.03.8.8 0 00-.23.18l-3.91 4.3V3.18a.8.8 0 00-.8-.81z" color="#000" font-weight="400" font-family="sans-serif" overflow="visible" fill="#fff" fill-opacity=".31"/><path d="M40.22 3.17v11.65M42.33 32.8h10.59" fill="none" stroke="#19b80b" stroke-width="1.59" stroke-linecap="round" stroke-linejoin="round"/><path style="line-height:normal;font-variant-ligatures:normal;font-variant-position:normal;font-variant-caps:normal;font-variant-numeric:normal;font-variant-alternates:normal;font-feature-settings:normal;text-indent:0;text-align:start;text-decoration-line:none;text-decoration-style:solid;text-decoration-color:#000;text-transform:none;text-orientation:mixed;white-space:normal;shape-padding:0;isolation:auto;mix-blend-mode:normal;solid-color:#000;solid-opacity:1" d="M47.61 18.25a.8.8 0 00-.78.8v3.77l-3.91-4.3a.8.8 0 00-.64-.27.8.8 0 00-.53 1.33l4.8 5.3-4.8 5.28a.8.8 0 101.17 1.07l3.91-4.3v3.76a.8.8 0 00.27.64.8.8 0 00.07.05.8.8 0 001.25-.69v-3.77l3.91 4.3a.8.8 0 00.4.25.8.8 0 00.08.02.8.8 0 00.7-1.33l-4.81-5.29 4.8-5.29a.8.8 0 00-.56-1.33.8.8 0 00-.3.05.8.8 0 00-.08.04.8.8 0 00-.23.18l-3.91 4.3v-3.77a.8.8 0 00-.8-.8z" color="#000" font-weight="400" font-family="sans-serif" overflow="visible" fill="#fff" fill-opacity=".31"/><path d="M40.22 19.05v11.64M55.03 19.05v11.64" fill="none" stroke="#19b80b" stroke-width="1.59" stroke-linecap="round" stroke-linejoin="round"/></g><g><path d="M61.91 16.93H72.5M61.91 1.06H72.5" fill="none" stroke="#19b80b" stroke-width="1.59" stroke-linecap="round" stroke-linejoin="round"/><path d="M74.61 3.17v11.65" fill="none" stroke="#fff" stroke-width="1.59" stroke-linecap="round" stroke-linejoin="round" stroke-opacity=".31"/><path style="line-height:normal;font-variant-ligatures:normal;font-variant-position:normal;font-variant-caps:normal;font-variant-numeric:normal;font-variant-alternates:normal;font-feature-settings:normal;text-indent:0;text-align:start;text-decoration-line:none;text-decoration-style:solid;text-decoration-color:#000;text-transform:none;text-orientation:mixed;white-space:normal;shape-padding:0;isolation:auto;mix-blend-mode:normal;solid-color:#000;solid-opacity:1" d="M67.2 2.37a.8.8 0 00-.79.8v3.77l-3.91-4.3a.8.8 0 00-.64-.27.8.8 0 00-.53 1.34L66.13 9l-4.8 5.28a.8.8 0 101.17 1.07l3.91-4.3v3.77a.8.8 0 00.27.63.8.8 0 00.06.05.8.8 0 001.26-.68v-3.77l3.9 4.3a.8.8 0 00.4.25.8.8 0 00.09.01.8.8 0 00.7-1.33L68.27 9l4.8-5.3a.8.8 0 00-.56-1.33.8.8 0 00-.31.06.8.8 0 00-.07.03.8.8 0 00-.23.18L68 6.94V3.18a.8.8 0 00-.8-.81z" color="#000" font-weight="400" font-family="sans-serif" overflow="visible" fill="#fff" fill-opacity=".31"/><path d="M59.8 3.17v11.65M61.91 32.8H72.5" fill="none" stroke="#19b80b" stroke-width="1.59" stroke-linecap="round" stroke-linejoin="round"/><path style="line-height:normal;font-variant-ligatures:normal;font-variant-position:normal;font-variant-caps:normal;font-variant-numeric:normal;font-variant-alternates:normal;font-feature-settings:normal;text-indent:0;text-align:start;text-decoration-line:none;text-decoration-style:solid;text-decoration-color:#000;text-transform:none;text-orientation:mixed;white-space:normal;shape-padding:0;isolation:auto;mix-blend-mode:normal;solid-color:#000;solid-opacity:1" d="M67.2 18.25a.8.8 0 00-.79.8v3.77l-3.91-4.3a.8.8 0 00-.64-.27.8.8 0 00-.53 1.33l4.8 5.3-4.8 5.28a.8.8 0 101.17 1.07l3.91-4.3v3.76a.8.8 0 00.27.64.8.8 0 00.06.05.8.8 0 001.26-.69v-3.77l3.9 4.3a.8.8 0 00.4.25.8.8 0 00.09.02.8.8 0 00.7-1.33l-4.81-5.29 4.8-5.29a.8.8 0 00-.56-1.33.8.8 0 00-.31.05.8.8 0 00-.07.04.8.8 0 00-.23.18L68 22.82v-3.77a.8.8 0 00-.8-.8z" color="#000" font-weight="400" font-family="sans-serif" overflow="visible" fill="#fff" fill-opacity=".31"/><path d="M59.8 19.05v11.64" fill="none" stroke="#19b80b" stroke-width="1.59" stroke-linecap="round" stroke-linejoin="round"/><path d="M74.61 19.05v11.64" fill="none" stroke="#fff" stroke-width="1.59" stroke-linecap="round" stroke-linejoin="round" stroke-opacity=".31"/></g><g><path d="M81.5 16.93h10.58M81.5 1.06h10.58M94.2 3.17v11.65" fill="none" stroke="#19b80b" stroke-width="1.59" stroke-linecap="round" stroke-linejoin="round"/><path style="line-height:normal;font-variant-ligatures:normal;font-variant-position:normal;font-variant-caps:normal;font-variant-numeric:normal;font-variant-alternates:normal;font-feature-settings:normal;text-indent:0;text-align:start;text-decoration-line:none;text-decoration-style:solid;text-decoration-color:#000;text-transform:none;text-orientation:mixed;white-space:normal;shape-padding:0;isolation:auto;mix-blend-mode:normal;solid-color:#000;solid-opacity:1" d="M86.77 2.37a.8.8 0 00-.78.8v3.77l-3.91-4.3a.8.8 0 00-.64-.27.8.8 0 00-.54 1.34L85.71 9l-4.8 5.28a.8.8 0 101.17 1.07l3.91-4.3v3.77a.8.8 0 00.27.63.8.8 0 00.06.05.8.8 0 001.26-.68v-3.77l3.9 4.3a.8.8 0 00.4.25.8.8 0 00.09.01.8.8 0 00.7-1.33L87.85 9l4.8-5.3a.8.8 0 00-.56-1.33.8.8 0 00-.31.06.8.8 0 00-.07.03.8.8 0 00-.23.18l-3.91 4.3V3.18a.8.8 0 00-.8-.81z" color="#000" font-weight="400" font-family="sans-serif" overflow="visible" fill="#fff" fill-opacity=".31"/><path d="M79.38 3.17v11.65" fill="none" stroke="#19b80b" stroke-width="1.59" stroke-linecap="round" stroke-linejoin="round"/><path d="M81.5 32.8h10.58" fill="none" stroke="#fff" stroke-width="1.59" stroke-linecap="round" stroke-linejoin="round" stroke-opacity=".31"/><path style="line-height:normal;font-variant-ligatures:normal;font-variant-position:normal;font-variant-caps:normal;font-variant-numeric:normal;font-variant-alternates:normal;font-feature-settings:normal;text-indent:0;text-align:start;text-decoration-line:none;text-decoration-style:solid;text-decoration-color:#000;text-transform:none;text-orientation:mixed;white-space:normal;shape-padding:0;isolation:auto;mix-blend-mode:normal;solid-color:#000;solid-opacity:1" d="M86.77 18.25a.8.8 0 00-.78.8v3.77l-3.91-4.3a.8.8 0 00-.64-.27.8.8 0 00-.54 1.33l4.81 5.3-4.8 5.28a.8.8 0 101.17 1.07l3.91-4.3v3.76a.8.8 0 00.27.64.8.8 0 00.06.05.8.8 0 001.26-.69v-3.77l3.9 4.3a.8.8 0 00.4.25.8.8 0 00.09.02.8.8 0 00.7-1.33l-4.81-5.29 4.8-5.29a.8.8 0 00-.56-1.33.8.8 0 00-.31.05.8.8 0 00-.07.04.8.8 0 00-.23.18l-3.91 4.3v-3.77a.8.8 0 00-.8-.8z" color="#000" font-weight="400" font-family="sans-serif" overflow="visible" fill="#fff" fill-opacity=".31"/><path d="M79.38 19.05v11.64" fill="none" stroke="#19b80b" stroke-width="1.59" stroke-linecap="round" stroke-linejoin="round"/><path d="M94.2 19.05v11.64" fill="none" stroke="#fff" stroke-width="1.59" stroke-linecap="round" stroke-linejoin="round" stroke-opacity=".31"/><path d="M81.5 19.05l10.57 11.64" fill="none" stroke="#19b80b" stroke-width="1.85" stroke-linecap="round"/></g><g><path d="M101.07 16.93h10.58M101.07 1.06h10.58M113.77 3.17v11.65" fill="none" stroke="#19b80b" stroke-width="1.59" stroke-linecap="round" stroke-linejoin="round"/><path style="line-height:normal;font-variant-ligatures:normal;font-variant-position:normal;font-variant-caps:normal;font-variant-numeric:normal;font-variant-alternates:normal;font-feature-settings:normal;text-indent:0;text-align:start;text-decoration-line:none;text-decoration-style:solid;text-decoration-color:#000;text-transform:none;text-orientation:mixed;white-space:normal;shape-padding:0;isolation:auto;mix-blend-mode:normal;solid-color:#000;solid-opacity:1" d="M106.35 2.37a.8.8 0 00-.78.8v3.77l-3.91-4.3a.8.8 0 00-.64-.27.8.8 0 00-.54 1.34L105.3 9l-4.8 5.28a.8.8 0 101.17 1.07l3.91-4.3v3.77a.8.8 0 00.27.63.8.8 0 00.06.05.8.8 0 001.26-.68v-3.77l3.9 4.3a.8.8 0 00.4.25.8.8 0 00.08.01.8.8 0 00.7-1.33L107.44 9l4.8-5.3a.8.8 0 00-.56-1.33.8.8 0 00-.31.06.8.8 0 00-.07.03.8.8 0 00-.23.18l-3.91 4.3V3.18a.8.8 0 00-.8-.81z" color="#000" font-weight="400" font-family="sans-serif" overflow="visible" fill="#fff" fill-opacity=".31"/><path d="M98.95 3.17v11.65" fill="none" stroke="#19b80b" stroke-width="1.59" stroke-linecap="round" stroke-linejoin="round"/><path d="M101.07 32.8h10.58" fill="none" stroke="#fff" stroke-width="1.59" stroke-linecap="round" stroke-linejoin="round" stroke-opacity=".31"/><path style="line-height:normal;font-variant-ligatures:normal;font-variant-position:normal;font-variant-caps:normal;font-variant-numeric:normal;font-variant-alternates:normal;font-feature-settings:normal;text-indent:0;text-align:start;text-decoration-line:none;text-decoration-style:solid;text-decoration-color:#000;text-transform:none;text-orientation:mixed;white-space:normal;shape-padding:0;isolation:auto;mix-blend-mode:normal;solid-color:#000;solid-opacity:1" d="M106.35 18.25a.8.8 0 00-.78.8v3.77l-3.91-4.3a.8.8 0 00-.64-.27.8.8 0 00-.54 1.33l4.81 5.3-4.8 5.28a.8.8 0 101.17 1.07l3.91-4.3v3.76a.8.8 0 00.27.64.8.8 0 00.06.05.8.8 0 001.26-.69v-3.77l3.9 4.3a.8.8 0 00.4.25.8.8 0 00.08.02.8.8 0 00.7-1.33l-4.8-5.29 4.8-5.29a.8.8 0 00-.56-1.33.8.8 0 00-.31.05.8.8 0 00-.07.04.8.8 0 00-.23.18l-3.91 4.3v-3.77a.8.8 0 00-.8-.8z" color="#000" font-weight="400" font-family="sans-serif" overflow="visible" fill="#fff" fill-opacity=".31"/><path d="M98.95 19.05v11.64" fill="none" stroke="#19b80b" stroke-width="1.59" stroke-linecap="round" stroke-linejoin="round"/><path d="M113.77 19.05v11.64" fill="none" stroke="#fff" stroke-width="1.59" stroke-linecap="round" stroke-linejoin="round" stroke-opacity=".31"/></g><g><path d="M120.65 16.93h10.58M120.65 1.06h10.58" fill="none" stroke="#fff" stroke-width="1.59" stroke-linecap="round" stroke-linejoin="round" stroke-opacity=".31"/><path d="M133.35 3.17v11.65" fill="none" stroke="#19b80b" stroke-width="1.59" stroke-linecap="round" stroke-linejoin="round"/><path style="line-height:normal;font-variant-ligatures:normal;font-variant-position:normal;font-variant-caps:normal;font-variant-numeric:normal;font-variant-alternates:normal;font-feature-settings:normal;text-indent:0;text-align:start;text-decoration-line:none;text-decoration-style:solid;text-decoration-color:#000;text-transform:none;text-orientation:mixed;white-space:normal;shape-padding:0;isolation:auto;mix-blend-mode:normal;solid-color:#000;solid-opacity:1" d="M125.93 2.37a.8.8 0 00-.78.8v3.77l-3.91-4.3a.8.8 0 00-.64-.27.8.8 0 00-.54 1.34l4.8 5.29-4.8 5.28a.8.8 0 101.18 1.07l3.9-4.3v3.77a.8.8 0 00.28.63.8.8 0 00.06.05.8.8 0 001.25-.68v-3.77l3.92 4.3a.8.8 0 00.4.25.8.8 0 00.07.01.8.8 0 00.7-1.33L127.02 9l4.8-5.3a.8.8 0 00-.56-1.33.8.8 0 00-.31.06.8.8 0 00-.07.03.8.8 0 00-.23.18l-3.92 4.3V3.18a.8.8 0 00-.8-.81z" color="#000" font-weight="400" font-family="sans-serif" overflow="visible" fill="#fff" fill-opacity=".31"/><path d="M118.53 3.17v11.65M120.65 32.8h10.58" fill="none" stroke="#19b80b" stroke-width="1.59" stroke-linecap="round" stroke-linejoin="round"/><path style="line-height:normal;font-variant-ligatures:normal;font-variant-position:normal;font-variant-caps:normal;font-variant-numeric:normal;font-variant-alternates:normal;font-feature-settings:normal;text-indent:0;text-align:start;text-decoration-line:none;text-decoration-style:solid;text-decoration-color:#000;text-transform:none;text-orientation:mixed;white-space:normal;shape-padding:0;isolation:auto;mix-blend-mode:normal;solid-color:#000;solid-opacity:1" d="M125.93 18.25a.8.8 0 00-.78.8v3.77l-3.91-4.3a.8.8 0 00-.64-.27.8.8 0 00-.54 1.33l4.8 5.3-4.8 5.28a.8.8 0 101.18 1.07l3.9-4.3v3.76a.8.8 0 00.28.64.8.8 0 00.06.05.8.8 0 001.25-.69v-3.77l3.92 4.3a.8.8 0 00.4.25.8.8 0 00.07.02.8.8 0 00.7-1.33l-4.8-5.29 4.8-5.29a.8.8 0 00-.56-1.33.8.8 0 00-.31.05.8.8 0 00-.07.04.8.8 0 00-.23.18l-3.92 4.3v-3.77a.8.8 0 00-.8-.8z" color="#000" font-weight="400" font-family="sans-serif" overflow="visible" fill="#fff" fill-opacity=".31"/><path d="M118.53 19.05v11.64M133.35 19.05v11.64" fill="none" stroke="#19b80b" stroke-width="1.59" stroke-linecap="round" stroke-linejoin="round"/></g><g><path d="M140.23 16.93h10.58M140.23 1.06h10.58" fill="none" stroke="#fff" stroke-width="1.59" stroke-linecap="round" stroke-linejoin="round" stroke-opacity=".31"/><path d="M152.93 3.17v11.65" fill="none" stroke="#19b80b" stroke-width="1.59" stroke-linecap="round" stroke-linejoin="round"/><path style="line-height:normal;font-variant-ligatures:normal;font-variant-position:normal;font-variant-caps:normal;font-variant-numeric:normal;font-variant-alternates:normal;font-feature-settings:normal;text-indent:0;text-align:start;text-decoration-line:none;text-decoration-style:solid;text-decoration-color:#000;text-transform:none;text-orientation:mixed;white-space:normal;shape-padding:0;isolation:auto;mix-blend-mode:normal;solid-color:#000;solid-opacity:1" d="M145.51 2.37a.8.8 0 00-.78.8v3.77l-3.91-4.3a.8.8 0 00-.64-.27.8.8 0 00-.54 1.34l4.8 5.29-4.8 5.28a.8.8 0 101.18 1.07l3.9-4.3v3.77a.8.8 0 00.28.63.8.8 0 00.06.05.8.8 0 001.25-.68v-3.77l3.92 4.3a.8.8 0 00.4.25.8.8 0 00.07.01.8.8 0 00.7-1.33L146.6 9l4.8-5.3a.8.8 0 00-.56-1.33.8.8 0 00-.31.06.8.8 0 00-.08.03.8.8 0 00-.22.18l-3.92 4.3V3.18a.8.8 0 00-.8-.81z" color="#000" font-weight="400" font-family="sans-serif" overflow="visible" fill="#fff" fill-opacity=".31"/><path d="M138.11 3.17v11.65" fill="none" stroke="#19b80b" stroke-width="1.59" stroke-linecap="round" stroke-linejoin="round"/><path d="M140.23 32.8h10.58" fill="none" stroke="#fff" stroke-width="1.59" stroke-linecap="round" stroke-linejoin="round" stroke-opacity=".31"/><path style="line-height:normal;font-variant-ligatures:normal;font-variant-position:normal;font-variant-caps:normal;font-variant-numeric:normal;font-variant-alternates:normal;font-feature-settings:normal;text-indent:0;text-align:start;text-decoration-line:none;text-decoration-style:solid;text-decoration-color:#000;text-transform:none;text-orientation:mixed;white-space:normal;shape-padding:0;isolation:auto;mix-blend-mode:normal;solid-color:#000;solid-opacity:1" d="M145.51 18.25a.8.8 0 00-.78.8v3.77l-3.91-4.3a.8.8 0 00-.64-.27.8.8 0 00-.54 1.33l4.8 5.3-4.8 5.28a.8.8 0 101.18 1.07l3.9-4.3v3.76a.8.8 0 00.28.64.8.8 0 00.06.05.8.8 0 001.25-.69v-3.77l3.92 4.3a.8.8 0 00.4.25.8.8 0 00.07.02.8.8 0 00.7-1.33l-4.8-5.29 4.8-5.29a.8.8 0 00-.56-1.33.8.8 0 00-.31.05.8.8 0 00-.08.04.8.8 0 00-.22.18l-3.92 4.3v-3.77a.8.8 0 00-.8-.8z" color="#000" font-weight="400" font-family="sans-serif" overflow="visible" fill="#fff" fill-opacity=".31"/><path d="M138.11 19.05v11.64M152.93 19.05v11.64" fill="none" stroke="#19b80b" stroke-width="1.59" stroke-linecap="round" stroke-linejoin="round"/><path d="M140.23 3.18l10.58 11.64" fill="none" stroke="#19b80b" stroke-width="1.85" stroke-linecap="round"/></g><g><path d="M159.8 16.93h10.6M159.8 1.06h10.6M172.5 3.17v11.65" fill="none" stroke="#fff" stroke-width="1.59" stroke-linecap="round" stroke-linejoin="round" stroke-opacity=".31"/><path style="line-height:normal;font-variant-ligatures:normal;font-variant-position:normal;font-variant-caps:normal;font-variant-numeric:normal;font-variant-alternates:normal;font-feature-settings:normal;text-indent:0;text-align:start;text-decoration-line:none;text-decoration-style:solid;text-decoration-color:#000;text-transform:none;text-orientation:mixed;white-space:normal;shape-padding:0;isolation:auto;mix-blend-mode:normal;solid-color:#000;solid-opacity:1" d="M165.09 2.37a.8.8 0 00-.78.8v3.77l-3.92-4.3a.8.8 0 00-.63-.27.8.8 0 00-.54 1.34l4.8 5.29-4.8 5.28a.8.8 0 101.17 1.07l3.92-4.3v3.77a.8.8 0 00.27.63.8.8 0 00.06.05.8.8 0 001.25-.68v-3.77l3.92 4.3a.8.8 0 00.4.25.8.8 0 00.07.01.8.8 0 00.7-1.33L166.18 9l4.8-5.3a.8.8 0 00-.56-1.33.8.8 0 00-.31.06.8.8 0 00-.08.03.8.8 0 00-.22.18l-3.92 4.3V3.18a.8.8 0 00-.8-.81z" color="#000" font-weight="400" font-family="sans-serif" overflow="visible" fill="#fff" fill-opacity=".31"/><path d="M157.7 3.17v11.65" fill="none" stroke="#19b80b" stroke-width="1.59" stroke-linecap="round" stroke-linejoin="round"/><path d="M159.8 32.8h10.6" fill="none" stroke="#fff" stroke-width="1.59" stroke-linecap="round" stroke-linejoin="round" stroke-opacity=".31"/><path style="line-height:normal;font-variant-ligatures:normal;font-variant-position:normal;font-variant-caps:normal;font-variant-numeric:normal;font-variant-alternates:normal;font-feature-settings:normal;text-indent:0;text-align:start;text-decoration-line:none;text-decoration-style:solid;text-decoration-color:#000;text-transform:none;text-orientation:mixed;white-space:normal;shape-padding:0;isolation:auto;mix-blend-mode:normal;solid-color:#000;solid-opacity:1" d="M165.09 18.25a.8.8 0 00-.78.8v3.77l-3.92-4.3a.8.8 0 00-.63-.27.8.8 0 00-.54 1.33l4.8 5.3-4.8 5.28a.8.8 0 101.17 1.07l3.92-4.3v3.76a.8.8 0 00.27.64.8.8 0 00.06.05.8.8 0 001.25-.69v-3.77l3.92 4.3a.8.8 0 00.4.25.8.8 0 00.07.02.8.8 0 00.7-1.33l-4.8-5.29 4.8-5.29a.8.8 0 00-.56-1.33.8.8 0 00-.31.05.8.8 0 00-.08.04.8.8 0 00-.22.18l-3.92 4.3v-3.77a.8.8 0 00-.8-.8z" color="#000" font-weight="400" font-family="sans-serif" overflow="visible" fill="#fff" fill-opacity=".31"/><path d="M157.7 19.05v11.64" fill="none" stroke="#19b80b" stroke-width="1.59" stroke-linecap="round" stroke-linejoin="round"/><path d="M172.5 19.05v11.64" fill="none" stroke="#fff" stroke-width="1.59" stroke-linecap="round" stroke-linejoin="round" stroke-opacity=".31"/><path d="M159.8 19.05l10.6 11.64M159.8 14.82l10.6-11.64" fill="none" stroke="#19b80b" stroke-width="1.85" stroke-linecap="round"/></g></svg>